<?xml version="1.0" standalone="no"?>
<!DOCTYPE svg PUBLIC "-//W3C//DTD SVG 20010904//EN"
 "http://www.w3.org/TR/2001/REC-SVG-20010904/DTD/svg10.dtd">
<svg version="1.0" xmlns="http://www.w3.org/2000/svg"
 width="300.000000pt" height="200.000000pt" viewBox="0 0 300.000000 200.000000"
 preserveAspectRatio="xMidYMid meet">
<metadata>
Created by potrace 1.10, written by Peter Selinger 2001-2011
</metadata>
<g transform="translate(0.000000,200.000000) scale(0.100000,-0.100000)"
fill="#000000" stroke="none">
<path d="M1454 1726 c-16 -19 -67 -97 -113 -174 -74 -123 -92 -146 -146 -186
-146 -107 -231 -250 -250 -421 -8 -63 -26 -98 -171 -335 -105 -172 -104 -174
180 -178 116 -2 220 -7 231 -11 11 -5 40 -18 65 -29 81 -38 161 -56 250 -55
90 0 195 22 245 51 60 35 109 42 311 44 213 3 234 8 234 51 0 11 -52 106 -115
211 -106 177 -115 196 -121 256 -3 36 -19 99 -35 140 -49 127 -105 200 -215
279 -59 41 -98 95 -205 281 -40 68 -77 110 -100 110 -9 0 -30 -15 -45 -34z
m161 -171 c60 -101 111 -182 113 -180 9 9 80 -35 130 -80 105 -94 172 -233
178 -368 3 -67 4 -71 110 -245 59 -97 113 -186 121 -198 l13 -21 -780 0 -781
-1 14 21 c7 12 62 102 122 201 96 156 109 183 106 217 -11 156 108 362 262
452 65 38 66 40 169 212 56 96 105 174 108 174 3 0 54 -83 115 -184z m-248
-1170 c121 -32 265 -15 384 46 34 16 58 25 54 19 -10 -16 -94 -56 -160 -76
-79 -23 -211 -23 -290 0 -66 20 -150 60 -160 76 -4 6 20 -3 54 -19 33 -17 87
-38 118 -46z m-41 53 c48 -18 81 -22 174 -22 93 0 126 4 174 22 67 25 69 25
61 13 -3 -5 -36 -20 -73 -33 -94 -32 -241 -31 -327 2 -53 20 -90 40 -74 40 3
0 32 -10 65 -22z"/>
<path d="M1300 1348 c-107 -177 -268 -440 -357 -585 l-161 -263 720 0 719 0
-19 28 c-11 15 -51 79 -89 142 -39 63 -177 291 -308 505 -131 215 -252 414
-269 442 -17 29 -33 53 -36 53 -3 0 -93 -145 -200 -322z m265 176 c29 -49 53
-90 52 -91 -1 -1 -15 1 -30 4 -23 5 -28 10 -24 27 3 11 1 30 -3 41 -8 18 -9
18 -9 -5 -1 -33 -18 -50 -51 -50 -33 0 -50 17 -51 50 0 25 0 25 -9 2 -5 -12
-7 -29 -4 -37 4 -10 -3 -18 -21 -25 -15 -6 -29 -9 -30 -8 -8 8 111 196 118
189 5 -5 33 -49 62 -97z m47 -102 c9 -4 -44 -7 -118 -7 -74 0 -125 3 -112 7
31 8 208 8 230 0z m23 -47 c23 -9 50 -44 116 -153 47 -78 89 -139 92 -135 4 3
7 2 7 -3 0 -5 -18 -19 -40 -32 -40 -23 -40 -23 -21 -43 15 -16 26 -19 50 -14
17 4 29 11 25 16 -3 5 -3 9 0 9 3 0 8 -4 11 -10 3 -5 -9 -16 -27 -24 l-33 -15
50 4 50 4 -40 -14 c-29 -11 -32 -14 -12 -11 15 2 27 -1 27 -5 0 -5 -10 -9 -21
-9 -18 0 -19 -3 -9 -15 6 -8 9 -23 5 -35 -5 -14 -2 -20 9 -20 9 0 16 -5 16
-10 0 -6 -12 -8 -27 -5 -38 7 0 -9 42 -19 26 -5 28 -4 14 6 -24 19 -33 72 -16
87 12 9 19 4 41 -33 14 -25 26 -53 26 -63 0 -34 -29 -112 -54 -150 -14 -21
-26 -41 -26 -45 0 -4 -10 -17 -23 -30 -12 -13 -30 -33 -38 -46 -19 -26 -53
-36 -79 -22 -13 7 -20 6 -22 -2 -3 -7 -27 29 -54 80 -42 78 -52 91 -69 86 -29
-9 -29 -6 -10 -89 24 -107 13 -115 -14 -11 -26 97 -38 109 -22 20 6 -31 9 -59
6 -62 -2 -2 -6 6 -9 19 -2 13 -9 44 -15 69 -10 43 -10 43 -6 -20 5 -74 -1 -70
-14 10 -9 55 -9 55 -10 -32 -1 -51 -5 -88 -11 -88 -6 0 -10 37 -11 88 -1 87
-1 87 -10 32 -13 -80 -19 -84 -14 -10 3 44 2 57 -4 40 -5 -14 -9 -39 -10 -57
-1 -17 -6 -35 -12 -39 -8 -4 -9 3 -5 25 23 120 10 114 -19 -9 -10 -41 -20 -69
-23 -62 -2 7 4 47 13 88 20 92 15 106 -10 24 -10 -33 -22 -60 -26 -60 -5 0 1
25 12 56 15 40 18 59 10 67 -13 13 -10 17 -56 -66 -39 -71 -41 -87 -6 -65 23
14 49 -1 37 -21 -9 -15 -53 -14 -62 1 -5 7 -11 5 -21 -7 -7 -11 -13 -13 -13
-7 0 10 -5 10 -20 2 -19 -10 -70 -4 -70 9 0 3 -10 17 -23 31 -51 57 -88 110
-82 120 3 5 2 10 -3 10 -9 0 -37 78 -44 120 -3 20 52 111 63 104 15 -9 10 -66
-8 -86 -17 -19 -16 -19 12 -12 17 4 39 11 50 16 16 7 14 7 -7 3 -16 -3 -28 -1
-28 5 0 5 7 10 15 10 17 0 20 16 4 26 -8 4 -8 9 0 17 15 15 14 27 -4 27 -8 0
-15 5 -15 10 0 6 12 8 28 5 16 -3 12 1 -13 10 l-40 15 50 -5 50 -4 -30 15 -30
14 33 -6 c26 -5 38 -1 53 15 19 20 19 20 -21 43 -22 13 -40 27 -40 31 0 5 22
-4 50 -20 39 -22 52 -25 62 -15 10 10 5 18 -22 42 -19 16 -30 29 -24 30 5 0
23 -13 39 -30 42 -44 44 -27 2 19 -36 40 -36 40 -51 19 -15 -20 -13 -23 19
-46 19 -14 33 -27 31 -30 -3 -2 -20 8 -39 22 -18 14 -37 23 -42 18 -12 -10 -6
-1 80 141 43 70 83 132 90 137 34 28 225 32 290 5z m-606 -622 c22 -74 65
-149 114 -200 17 -18 26 -33 20 -33 -15 0 -76 70 -106 121 -13 24 -33 68 -42
98 -13 41 -20 50 -26 38 -13 -23 24 -116 77 -193 l44 -64 -146 0 -146 0 14 23
c8 12 50 79 93 150 44 70 80 127 81 127 1 0 11 -30 23 -67z m1073 -103 c35
-58 68 -111 72 -117 6 -10 -25 -13 -138 -13 l-146 0 44 64 c53 77 90 170 77
193 -6 12 -13 3 -26 -38 -9 -30 -29 -74 -42 -98 -30 -51 -91 -121 -106 -121
-6 0 3 15 20 33 49 51 92 126 115 200 l20 68 23 -33 c12 -18 51 -80 87 -138z
m-733 -9 c-12 -28 -24 -49 -27 -46 -3 3 5 28 18 55 30 65 37 58 9 -9z m287
-48 c-5 -6 -30 49 -40 88 -3 13 6 0 19 -30 14 -29 24 -56 21 -58z m-31 11 c4
-25 3 -24 -8 6 -8 19 -17 46 -20 60 -5 19 -3 17 8 -6 7 -17 16 -44 20 -60z
m63 -52 c2 -8 -8 -12 -27 -12 -29 0 -41 16 -25 33 8 8 47 -8 52 -21z"/>
<path d="M1457 1534 c-9 -10 6 -45 24 -54 23 -13 44 -4 57 25 15 32 5 38 -20
13 l-21 -21 -17 21 c-10 12 -20 19 -23 16z"/>
<path d="M1380 1368 c-67 -16 -29 -22 46 -8 51 10 81 10 145 0 90 -14 118 -8
39 9 -62 13 -169 13 -230 -1z"/>
<path d="M1381 1249 c-1 -34 27 -134 35 -126 2 2 -4 39 -15 83 -15 62 -19 71
-20 43z"/>
<path d="M1400 1277 c0 -15 40 -150 46 -156 4 -3 3 12 -1 34 -3 22 -8 54 -11
70 l-4 30 10 -30 c5 -16 14 -48 19 -70 9 -36 9 -34 6 25 l-4 65 13 -60 13 -60
1 80 c0 44 -2 72 -5 62 -6 -22 -59 -19 -73 3 -6 8 -10 12 -10 7z"/>
<path d="M1596 1207 c-21 -92 -15 -113 10 -33 10 31 20 54 22 51 2 -2 -3 -25
-12 -51 -24 -70 -19 -77 9 -15 22 47 24 56 11 70 -8 9 -16 25 -18 36 -2 11
-12 -15 -22 -58z"/>
<path d="M1512 1200 l0 -75 10 54 c7 36 7 61 0 75 -8 16 -11 4 -10 -54z"/>
<path d="M1585 1261 c-3 -6 -10 -9 -15 -6 -15 9 -28 -21 -34 -80 l-5 -60 13
63 c7 34 17 66 21 70 4 4 5 -4 2 -18 -3 -14 -9 -45 -12 -70 -4 -39 -2 -35 19
30 23 69 27 97 11 71z"/>
<path d="M1281 1243 c-12 -13 -12 -16 0 -23 11 -7 8 -13 -10 -29 -12 -11 -28
-22 -34 -24 -7 -3 5 -22 29 -46 37 -38 43 -41 66 -31 l25 12 -35 65 c-45 85
-35 93 13 8 20 -37 39 -64 42 -62 2 3 -2 18 -10 34 -8 15 -17 39 -21 53 -3 14
8 -2 25 -35 30 -60 33 -41 4 29 -12 29 -20 36 -35 31 -12 -4 -23 1 -32 13 -11
17 -15 18 -27 5z m39 -107 c13 -22 18 -36 12 -32 -7 4 -12 2 -12 -6 0 -14 -59
52 -60 67 0 5 13 -6 30 -25 32 -39 41 -30 10 10 -11 14 -20 29 -20 35 0 13 12
-2 40 -49z"/>
<path d="M1683 1234 c-24 -22 -68 -112 -60 -120 3 -3 21 25 42 61 20 37 39 64
42 61 3 -3 -11 -34 -30 -69 l-35 -65 26 -12 c25 -11 29 -9 64 29 24 26 36 46
32 56 -5 13 -10 11 -25 -12 -27 -42 -59 -79 -59 -69 0 4 13 25 30 46 26 33 28
39 15 50 -9 7 -13 20 -10 29 9 29 -9 38 -32 15z m8 -96 c-17 -23 -31 -39 -31
-35 0 12 53 88 58 83 2 -3 -10 -24 -27 -48z"/>
<path d="M1741 1109 c-39 -48 -37 -62 4 -19 16 17 34 30 39 30 6 0 -5 -14 -24
-30 -28 -23 -32 -31 -23 -41 10 -10 20 -9 48 7 19 10 35 22 35 25 0 11 -34 69
-40 69 -3 0 -20 -19 -39 -41z"/>
<path d="M1390 1091 c-30 -9 -75 -30 -99 -45 -57 -37 -141 -120 -141 -141 0
-27 108 -123 176 -156 155 -77 336 -43 468 86 31 31 56 61 56 67 0 22 -52 78
-113 122 -114 81 -232 104 -347 67z m189 -35 c62 -30 94 -91 88 -164 -6 -87
-57 -137 -163 -160 -58 -13 -64 -13 -123 11 -72 29 -193 116 -186 135 2 6 -3
12 -13 13 -14 0 -14 2 3 9 17 7 18 9 2 9 -14 1 -15 4 -5 20 6 11 19 19 27 19
9 0 25 3 35 7 12 5 17 5 13 -1 -3 -5 5 -11 19 -12 13 -1 24 3 24 8 0 6 -3 10
-7 11 -5 0 -19 2 -32 5 -13 2 -30 -1 -38 -7 -11 -10 -12 -9 -7 5 3 9 17 19 30
22 13 3 22 11 21 16 -1 6 31 28 71 49 68 36 76 38 135 33 34 -3 82 -16 106
-28z m69 3 c34 -17 60 -34 57 -39 -3 -4 1 -7 8 -6 6 0 12 -3 12 -7 0 -5 15
-15 33 -22 17 -8 32 -19 32 -26 0 -8 -3 -9 -14 0 -13 11 -76 5 -76 -8 0 -9 48
-30 54 -23 3 3 1 11 -5 19 -8 9 -8 13 -1 13 6 0 14 -5 17 -10 4 -6 14 -8 23
-5 11 3 22 -3 30 -15 11 -18 10 -20 -10 -21 -22 -1 -22 -1 2 -9 17 -5 19 -8 8
-9 -10 -1 -17 -6 -15 -12 1 -6 -5 -13 -13 -15 -53 -13 -74 -16 -68 -10 3 4 10
8 15 8 4 0 13 4 20 10 19 15 3 38 -26 37 -24 -2 -24 -2 -3 -6 19 -4 21 -7 11
-19 -6 -8 -18 -14 -25 -14 -8 0 -14 -4 -14 -10 0 -16 51 -24 72 -11 11 7 18 7
18 1 0 -5 -3 -10 -7 -10 -5 0 -21 -12 -38 -26 -39 -35 -140 -81 -190 -88 l-40
-6 46 15 c82 26 140 120 124 198 -12 58 -52 113 -97 136 -30 14 -36 21 -22 21
11 0 49 -14 82 -31z"/>
<path d="M1392 1060 c-48 -29 -86 -116 -78 -175 12 -76 69 -140 136 -150 l35
-6 -38 15 c-140 53 -159 241 -32 313 22 13 33 23 25 23 -8 0 -30 -9 -48 -20z"/>
<path d="M1475 1052 c-16 -2 -35 -10 -42 -18 -7 -11 -13 -12 -18 -4 -5 8 -11
7 -22 -1 -13 -11 -12 -15 9 -32 l23 -18 -23 11 c-20 10 -24 8 -35 -20 -8 -17
-15 -28 -18 -26 -2 2 -4 -13 -4 -34 -1 -21 3 -36 8 -33 5 3 6 -4 2 -16 -4 -13
-2 -21 5 -21 6 0 8 -5 4 -11 -3 -6 6 -3 21 7 15 10 23 20 16 22 -6 2 -8 9 -5
14 4 7 2 8 -4 4 -16 -10 -15 17 1 33 10 10 9 15 -5 25 -20 15 -25 31 -6 20 7
-5 9 -2 6 8 -4 8 -1 15 7 15 8 0 11 -7 8 -16 -4 -11 -1 -9 10 4 8 10 12 26 9
34 -4 10 -1 12 8 6 9 -5 11 -4 6 3 -4 7 -2 12 4 12 6 0 8 5 4 11 -3 6 5 3 20
-6 25 -17 26 -17 35 6 l10 24 0 -24 c1 -13 4 -21 8 -18 3 4 13 1 21 -6 13 -10
14 -8 9 13 -4 14 -4 19 -1 13 3 -7 15 -13 25 -13 11 0 17 -5 14 -10 -4 -6 -11
-8 -16 -4 -6 3 -5 -3 2 -14 7 -12 17 -18 23 -15 5 4 6 1 1 -7 -6 -10 -11 -9
-21 4 -7 10 -18 15 -24 11 -8 -5 -5 -12 9 -22 12 -8 18 -20 15 -26 -4 -7 3 -2
15 11 22 23 37 30 26 12 -3 -5 1 -10 9 -10 9 0 14 8 13 20 -1 11 -6 19 -13 16
-6 -2 -11 5 -10 17 0 12 -3 22 -9 23 -5 0 -23 6 -40 13 -21 9 -31 9 -33 1 -3
-7 -8 -7 -16 2 -6 8 -24 12 -41 10z"/>
<path d="M1462 948 c-29 -29 -3 -98 37 -98 42 0 70 49 37 66 -12 5 -20 18 -20
27 2 20 -36 23 -54 5z"/>
<path d="M1640 925 c0 -22 -2 -24 -14 -13 -10 10 -11 15 -2 21 7 6 6 7 -3 5
-25 -7 -23 -25 6 -46 l28 -20 0 39 c1 22 -3 39 -7 39 -4 0 -8 -11 -8 -25z"/>
<path d="M1244 888 c1 -13 8 -23 14 -23 6 0 14 -4 19 -9 5 -5 -6 -6 -25 -3
-18 4 -31 3 -28 -2 3 -5 19 -11 35 -13 17 -2 28 -1 25 4 -3 4 1 8 8 8 7 0 0
10 -16 22 -26 20 -27 22 -10 29 17 7 17 8 -3 8 -18 1 -22 -4 -19 -21z"/>
<path d="M1610 879 c0 -6 -5 -7 -11 -4 -6 4 -10 1 -8 -6 3 -26 -1 -52 -8 -46
-7 8 -35 -12 -29 -22 2 -3 -3 -12 -11 -20 -13 -12 -14 -11 -8 9 5 15 4 20 -4
16 -6 -4 -11 -15 -11 -24 -1 -15 -2 -15 -11 1 -6 9 -14 15 -19 12 -5 -3 -11
-1 -15 5 -9 14 -42 13 -49 -2 -3 -7 -3 -3 -1 8 4 13 0 24 -8 27 -19 7 -41 -8
-32 -23 6 -9 10 -9 16 1 6 10 8 7 7 -10 -3 -27 18 -35 92 -34 67 0 91 6 80 17
-6 6 -10 15 -10 20 0 6 4 5 9 -3 7 -11 13 -10 35 4 22 15 24 20 14 39 -10 19
-9 20 5 8 13 -11 15 -10 10 7 -5 21 -33 38 -33 20z"/>
<path d="M1110 825 c-43 -12 -44 -12 -15 -16 17 -2 42 2 58 9 50 25 31 28 -43
7z"/>
<path d="M1824 831 c4 -6 13 -11 21 -11 20 0 25 -13 11 -26 -9 -9 -19 -8 -37
2 l-24 14 30 -5 c28 -5 29 -5 7 6 -19 10 -25 9 -42 -9 l-20 -21 61 -36 c68
-40 82 -44 51 -15 -12 12 -22 25 -22 31 0 23 22 49 43 50 21 0 21 1 2 8 -41
17 -88 24 -81 12z"/>
<path d="M1152 809 c-18 -7 -22 -14 -17 -30 5 -15 -1 -29 -22 -52 l-28 -30 38
21 c113 66 108 61 89 82 -18 22 -26 23 -60 9z"/>
<path d="M1182 737 l-54 -32 34 -5 c35 -5 40 -21 22 -65 -4 -11 20 9 53 45 59
63 61 65 40 77 -30 17 -34 16 -95 -20z m73 -17 c-16 -16 -34 -30 -39 -30 -12
1 49 60 61 60 4 0 -6 -13 -22 -30z"/>
<path d="M1723 757 c-21 -12 -19 -14 39 -76 37 -40 58 -56 54 -42 -3 11 -8 30
-11 40 -5 17 0 20 30 23 l37 3 -57 33 c-64 36 -62 36 -92 19z m62 -22 c17 -14
25 -25 19 -25 -6 0 -17 7 -24 15 -7 8 -17 15 -23 15 -6 0 0 -11 13 -25 13 -14
19 -25 14 -25 -6 0 -23 14 -40 31 -21 22 -24 28 -10 23 14 -5 17 -4 12 4 -12
20 7 13 39 -13z"/>
<path d="M1274 697 c-22 -23 -51 -55 -64 -71 l-25 -29 34 18 c32 16 35 16 47
1 6 -9 10 -27 7 -39 -4 -18 -3 -19 7 -7 20 27 82 152 71 146 -5 -3 -11 -1 -13
6 -2 6 -19 -9 -38 -35 -18 -26 -35 -45 -38 -42 -2 2 10 22 28 45 44 55 33 60
-16 7z m42 -29 c-14 -24 -31 -45 -37 -47 -7 -2 3 17 21 43 42 58 49 59 16 4z"/>
<path d="M1660 719 c0 -14 20 -21 20 -7 1 14 59 -51 60 -67 0 -5 -13 6 -30 25
-35 42 -39 34 -8 -14 19 -29 27 -34 50 -29 16 3 28 1 28 -5 0 -5 7 -13 16 -16
16 -6 -47 75 -82 105 -19 17 -54 22 -54 8z"/>
<path d="M1642 713 c15 -33 79 -153 82 -153 1 0 2 10 1 23 -1 21 -70 137 -81
137 -3 0 -4 -3 -2 -7z"/>
<path d="M952 718 c-6 -13 -21 -39 -34 -58 -15 -24 -17 -31 -6 -22 24 19 61
11 75 -17 14 -29 4 -55 -28 -72 -20 -10 -20 -10 -4 15 13 19 14 29 5 45 -21
40 -61 24 -99 -41 l-23 -38 127 0 127 0 -28 33 c-28 33 -84 143 -84 165 0 20
-16 14 -28 -10z"/>
<path d="M2020 728 c0 -22 -56 -132 -84 -165 l-28 -33 127 0 126 0 -25 43
c-29 48 -66 68 -90 47 -21 -16 -20 -39 2 -63 16 -19 16 -20 -5 -8 -13 6 -27
21 -33 32 -24 44 42 91 80 57 7 -7 3 3 -9 22 -12 19 -27 45 -33 58 -12 24 -28
30 -28 10z"/>
<path d="M1204 1327 c-78 -57 -137 -126 -174 -201 -31 -62 -63 -192 -58 -230
3 -18 7 -15 26 17 12 21 18 35 12 32 -13 -8 -13 0 5 70 29 110 122 246 195
285 13 7 -6 -17 -43 -54 -46 -46 -77 -89 -101 -139 -30 -62 -59 -162 -43 -147
13 12 247 403 244 407 -2 2 -31 -16 -63 -40z"/>
<path d="M1730 1366 c0 -6 239 -398 247 -406 3 -3 3 13 -1 35 -13 75 -75 183
-145 253 -36 36 -59 62 -51 57 98 -55 190 -197 214 -328 5 -27 4 -37 -3 -32
-6 3 -2 -10 10 -29 12 -20 23 -36 26 -36 2 0 1 26 -3 58 -17 141 -77 258 -177
347 -54 48 -117 92 -117 81z"/>
</g>
</svg>
